<?xml version="1.0" encoding="UTF-8"?>
<svg width="766px" height="789px" viewBox="0 0 766 789" version="1.1" xmlns="http://www.w3.org/2000/svg" xmlns:xlink="http://www.w3.org/1999/xlink">
    <!-- Generator: Sketch 48.2 (47327) - http://www.bohemiancoding.com/sketch -->
    <title>Group 9</title>
    <desc>Created with Sketch.</desc>
    <defs></defs>
    <g id="Page-1" stroke="none" stroke-width="1" fill="none" fill-rule="evenodd">
        <g id="Group-9" fill="#83868A" fill-rule="nonzero">
            <path d="M719.093581,678.670534 C719.093581,714.831345 688.874599,745.32792 651.691747,745.32792 L112.350459,745.32792 C75.1676058,745.32792 44.9486245,714.831345 44.9486245,678.670534 L44.9486245,154.154071 C44.9486245,117.99326 75.1676058,89.6720804 112.350459,89.6720804 L426.948624,89.6720804 L426.948624,46 L112.350459,46 C50.3931057,46 0,93.94078 0,154.195117 L0,678.670534 C0,738.92487 50.3931057,789 112.350459,789 L651.649541,789 C713.606894,789 764,738.883825 764,678.670534 L764,373.786874 L719.051376,373.786874 L719.051376,678.670534 L719.093581,678.670534 Z" id="Shape-Copy"></path>
            <path d="M739.676823,24.7363233 C705.760423,-8.2454411 646.57546,-8.2454411 612.616875,24.7363233 L311.292436,317.393147 C308.423885,320.179184 306.35684,323.702702 305.386595,327.513018 L273.663792,450.877108 C271.765486,458.292884 274.001269,466.159342 279.569633,471.608503 C283.830276,475.746588 289.567378,478 295.431035,478 C297.244971,478 299.058908,477.795144 300.872845,477.344462 L427.932794,446.493196 C431.898144,445.55086 435.483833,443.543275 438.352384,440.757237 L739.676823,148.100414 C756.635024,131.630017 766,109.710459 766,86.3978829 C766,63.0853065 756.677208,41.20672 739.676823,24.7363233 Z M411.016778,405.644974 L326.310146,426.212484 L347.486804,343.942443 L596.755474,101.844001 L660.285448,163.546532 L411.016778,405.644974 Z M707.911836,117.249148 L692.050435,132.654295 L628.520461,70.9517646 L644.381862,55.5466175 C661.340062,39.0762209 690.953636,39.0762209 707.911836,55.5466175 C716.390937,63.7818158 721.073425,74.7211091 721.073425,86.3978829 C721.073425,98.0746566 716.390937,109.01395 707.911836,117.249148 Z" id="Shape-Copy-2"></path>
        </g>
    </g>
</svg>