<?xml version="1.0" encoding="utf-8"?>
<!-- Generator: Adobe Illustrator 22.0.0, SVG Export Plug-In . SVG Version: 6.00 Build 0)  -->
<svg version="1.1" id="Layer_1" xmlns="http://www.w3.org/2000/svg" xmlns:xlink="http://www.w3.org/1999/xlink" x="0px" y="0px"
	 viewBox="0 0 500 500" style="enable-background:new 0 0 500 500; fill: #ff0000;" xml:space="preserve">
<path d="M250,416.2c-2.6,0-5.2-1-7-2.9L101.8,272c-21-20.8-32.6-48.6-32.6-78.2c0-60.7,49.4-110,110-110c26.2,0,51,9.1,70.8,25.8
	c19.8-16.7,44.6-25.8,70.8-25.8c60.7,0,110,49.4,110,110c0,29.6-11.6,57.4-32.6,78.2L257,413.3C255.2,415.1,252.6,416.2,250,416.2z
	 M179.2,103.6c-49.7,0-90.2,40.5-90.2,90.2c0,24.3,9.5,47,26.8,64.1L250,392.2L384.2,258c17.3-17.1,26.8-39.9,26.8-64.2
	c0-49.7-40.5-90.2-90.2-90.2c-24.1,0-46.7,9.4-63.8,26.4c-3.9,3.9-10.1,3.9-14,0C225.9,113,203.3,103.6,179.2,103.6z"/>
</svg>
