<?xml version="1.0" encoding="utf-8"?>
<!-- Generator: Adobe Illustrator 22.0.0, SVG Export Plug-In . SVG Version: 6.00 Build 0)  -->
<svg version="1.1" id="Layer_1" xmlns="http://www.w3.org/2000/svg" xmlns:xlink="http://www.w3.org/1999/xlink" x="0px" y="0px"
	 viewBox="0 0 500 500" style="enable-background:new 0 0 500 500;" xml:space="preserve">
<style type="text/css">
	.st0{fill:#231F20;}
</style>
<g>
	<path class="st0" d="M248.8,261.3c0.4,0,0.7,0,1.2,0c0.1,0,0.3,0,0.4,0c0.2,0,0.5,0,0.7,0c21.4-0.4,38.8-8,51.6-22.5
		c28.2-32.1,23.5-87,23-92.3c-1.8-39.4-20.3-58.2-35.5-67c-11.3-6.6-24.6-10.1-39.4-10.4h-0.5c-0.1,0-0.2,0-0.3,0h-0.4
		c-8.1,0-24.1,1.3-39.4,10.1c-15.4,8.8-34.1,27.6-35.9,67.3c-0.5,5.2-5.2,60.2,23,92.3C210,253.3,227.3,260.9,248.8,261.3z
		 M212,225.6c-23.2-26.3-18.2-76.8-18.2-77.2c0-0.2,0.1-0.4,0.1-0.6c2.4-53,39.7-58.7,55.6-58.7h0.3c0.1,0,0.4,0,0.6,0
		c19.8,0.4,53.4,8.6,55.6,58.7c0,0.2,0,0.4,0.1,0.6c0.1,0.5,5.2,50.8-18.1,77.2c-9.2,10.5-21.5,15.7-37.7,15.8c-0.1,0-0.2,0-0.4,0
		c-0.1,0-0.2,0-0.4,0C233.5,241.2,221.1,236,212,225.6z"/>
	<path class="st0" d="M131.9,291.8c-0.3,0.1-0.5,0.2-0.7,0.2c-32.3,11.3-33.2,46.4-33.7,61.4c0,0.7,0,1.3-0.1,1.9c0,0.1,0,0.2,0,0.2
		c-0.1,3.9-0.1,24.2,3.8,34.4c0.7,2,2.1,3.6,3.9,4.8c2.2,1.5,55.7,36.3,145.1,36.3c89.4,0,142.9-34.8,145.1-36.3
		c1.7-1.1,3.1-2.8,3.9-4.8c3.7-10.1,3.6-30.3,3.6-34.3c0-0.1,0-0.2,0-0.2c0-0.6-0.1-1.2-0.1-1.9c-0.4-15-1.4-50.1-33.7-61.4
		c-0.2-0.1-0.5-0.2-0.7-0.2c-33.5-8.7-61.4-28.4-61.7-28.7c-4.5-3.3-10.8-2.1-14,2.5c-3.2,4.6-2.1,11,2.5,14.3
		c1.3,0.9,30.8,21.9,67.9,31.6c17.3,6.3,19.3,25.2,19.8,42.5c0,0.7,0,1.3,0.1,1.9c0.1,6.8-0.4,17.4-1.6,23.4
		c-12,7-59.2,31.1-131,31.1c-71.5,0-119-24.2-131.1-31.2c-1.2-6.1-1.7-16.6-1.6-23.4c0-0.6,0.1-1.2,0.1-1.9
		c0.5-17.3,2.5-36.2,19.8-42.5c37-9.7,66.6-30.8,67.9-31.6c4.5-3.3,5.6-9.6,2.5-14.3c-3.2-4.6-9.4-5.8-14-2.5
		C193.2,263.4,165.5,283.1,131.9,291.8z"/>
</g>
</svg>
