<?xml version="1.0" encoding="utf-8"?>
<!-- Generator: Adobe Illustrator 22.0.0, SVG Export Plug-In . SVG Version: 6.00 Build 0)  -->
<svg version="1.1" id="Layer_1" xmlns="http://www.w3.org/2000/svg" xmlns:xlink="http://www.w3.org/1999/xlink" x="0px" y="0px"
	 viewBox="0 0 500 500" style="enable-background:new 0 0 500 500;" xml:space="preserve">
<path d="M136,431c-2.4,0-4.8-0.6-6.9-1.7c-5-2.6-8.1-7.7-8.1-13.3V117.2c0-26.6,21.6-48.2,48.2-48.2h161.5
	c26.6,0,48.2,21.6,48.2,48.2V416c0,5.6-3.1,10.7-8.1,13.3c-5,2.6-10.9,2.2-15.5-1L250,354.7l-105.4,73.6
	C142,430.1,139.1,431,136,431z M250,332.8c4.1,0,8.1,1.2,11.6,3.6l95.8,66.9V117.2c0-14.7-12-26.6-26.6-26.6H169.3
	c-14.7,0-26.6,12-26.6,26.6v286.1l95.8-66.9C241.9,334,245.9,332.8,250,332.8z"/>
</svg>
