<?xml version="1.0" encoding="utf-8"?>
<!-- Generator: Adobe Illustrator 22.0.0, SVG Export Plug-In . SVG Version: 6.00 Build 0)  -->
<svg version="1.1" id="Layer_1" xmlns="http://www.w3.org/2000/svg" xmlns:xlink="http://www.w3.org/1999/xlink" x="0px" y="0px"
	 viewBox="0 0 500 500" style="enable-background:new 0 0 500 500;" xml:space="preserve">
<path d="M349.7,398.4c-1.9,0-3.7-0.6-5.3-1.7l-55.8-41.2c-12.7,2-25.7,2.9-38.6,2.9c-99.8,0-181-57.6-181-128.4
	c0-70.8,81.2-128.4,181-128.4S431,159.2,431,230c0,38.7-23.8,74.5-65.5,99l-7,61.6c-0.4,3.1-2.4,5.9-5.3,7.1
	C352.1,398.2,350.9,398.4,349.7,398.4z M290.9,337.2c1.9,0,3.7,0.6,5.3,1.7l46.4,34.3l5.8-50.8c0.3-2.8,2-5.4,4.5-6.7
	c38.4-21.2,60.4-52.5,60.4-85.8c0-61-73.3-110.7-163.3-110.7S86.7,169,86.7,230c0,61,73.3,110.7,163.3,110.7
	c13.2,0,26.5-1.1,39.4-3.3C289.9,337.3,290.4,337.2,290.9,337.2z"/>
</svg>
