<?xml version="1.0" encoding="utf-8"?>
<!-- Generator: Adobe Illustrator 22.0.0, SVG Export Plug-In . SVG Version: 6.00 Build 0)  -->
<svg version="1.1" id="Layer_1" xmlns="http://www.w3.org/2000/svg" xmlns:xlink="http://www.w3.org/1999/xlink" x="0px" y="0px"
	 viewBox="0 0 500 500" style="enable-background:new 0 0 500 500;" xml:space="preserve">
<path d="M88.3,370.8c-5.4,0-10.8-2.3-14.7-6.7c-4.4-5.1-5.8-12-3.7-18.4C106.3,233.5,220,187.8,273,172.3v-26.4
	c0-6.3,3.5-12,9.1-14.9c5.6-2.8,12.3-2.3,17.4,1.5l124.7,91.9c4.3,3.1,6.7,8,6.8,13.3c0,5.3-2.4,10.2-6.6,13.4l-124.7,94.3
	c-5.1,3.8-11.8,4.5-17.5,1.6c-5.7-2.8-9.2-8.5-9.2-14.9v-24.4c0,0,0,0,0,0c-11.8,0-28.6,0.8-51.6,4.8
	c-33.6,5.8-81.8,19.8-120.4,53.5C97.3,369.2,92.8,370.8,88.3,370.8z M289.6,144.3c-0.2,0-0.5,0.1-0.7,0.2c-0.6,0.3-0.9,0.8-0.9,1.4
	V178c0,3.4-2.3,6.4-5.5,7.3c-47.8,13.2-162.8,55.8-198.3,165c-0.4,1.3-0.1,2.9,0.8,4c1.5,1.8,4.2,2,6,0.5
	c41.2-36,92.2-50.9,127.7-57c29.6-5.1,49.5-5.2,61.9-4.9c4.1,0.1,7.3,3.5,7.3,7.5v31.8c0,0.6,0.3,1.1,0.9,1.4
	c0.6,0.3,1.1,0.2,1.6-0.2l124.7-94.3c0.5-0.4,0.6-0.9,0.6-1.3c0-0.4-0.1-0.9-0.6-1.3l-124.7-91.9
	C290.3,144.4,289.9,144.3,289.6,144.3z M280.5,178L280.5,178L280.5,178z"/>
</svg>
